<?xml version="1.0" standalone="no"?><svg xmlns="http://www.w3.org/2000/svg" viewBox="0 0 1440 320"><path fill="#4dbce9" fill-opacity="1" d="M0,160L24,170.7C48,181,96,203,144,181.3C192,160,240,96,288,80C336,64,384,96,432,112C480,128,528,128,576,160C624,192,672,256,720,256C768,256,816,192,864,138.7C912,85,960,43,1008,26.7C1056,11,1104,21,1152,42.7C1200,64,1248,96,1296,101.3C1344,107,1392,85,1416,74.7L1440,64L1440,320L1416,320C1392,320,1344,320,1296,320C1248,320,1200,320,1152,320C1104,320,1056,320,1008,320C960,320,912,320,864,320C816,320,768,320,720,320C672,320,624,320,576,320C528,320,480,320,432,320C384,320,336,320,288,320C240,320,192,320,144,320C96,320,48,320,24,320L0,320Z"></path></svg>